# xmcd
# 
# Track frame offsets:
#     150
#     19850
#     45962
#     59867
#     77702
#     99722
#     115675
#     131775
#     144137
#     174850
#     191687
#     210095
#     230457
#     250140
#     273265
#     298417
#     317137
# 
# Disc length: 4477
# 
# Revision: 5
# Processed by: cddbd v1.5.2PL0 Copyright (c) Steve Scherf et al.
# Submitted via: BonkEnc v1.0
# 
DISCID=ef117b11
DTITLE=憂歌団 - 17/18oz.
DYEAR=1991
DGENRE=Blues
TTITLE0=胸が痛い
TTITLE1=サンセット理髪店
TTITLE2=心はいつも上天気
TTITLE3=LOVE IN THE JUNGLE
TTITLE4=想い出の街
TTITLE5=俺の村では俺も人気者
TTITLE6=おそうじオバチャン
TTITLE7=嫌んなった
TTITLE8=シカゴ バウンド
TTITLE9=ちっちゃなダイヤモンド
TTITLE10=ザ・エン歌
TTITLE11=大阪ビッグ・リバー・ブルース
TTITLE12=かぞえきれない雨
TTITLE13=とどかぬ想い 〜I Say Love You, Only〜
TTITLE14=Good time's rollin', bad time's rollin'
TTITLE15=夢
TTITLE16=キスに願いを
EXTD=YEAR: 1991
EXTT0=
EXTT1=
EXTT2=
EXTT3=
EXTT4=
EXTT5=
EXTT6=
EXTT7=
EXTT8=
EXTT9=
EXTT10=
EXTT11=
EXTT12=
EXTT13=
EXTT14=
EXTT15=
EXTT16=
PLAYORDER=
